<svg xmlns="http://www.w3.org/2000/svg" viewBox="0 0 512 512">
<path fill="currentColor" d="M156.2 323.3c-3.3 3.3-6.1 7.3-7.6 11.6-3.2 8.8-7.9 22.5-10.9 31.2-2.6 7.6-9.6 12.5-17.6 12.5-16.5 0-31.5 6.7-42.4 17.6s-17.6 25.9-17.6 42.4c0 8 4.9 15 12.5 17.6 8.7 3 22.4 7.7 31.2 10.9 4.3 1.5 8.3 4.3 11.6 7.6l31.1 31.1c6.2 6.2 16.4 6.2 22.6 0l52.7-52.7c14.6-14.6 21.9-35.2 19.5-55.6l-2.9-25.4 25.4 2.9c20.4 2.4 41-4.9 55.6-19.5l52.7-52.7c6.2-6.2 6.2-16.4 0-22.6l-31.1-31.1c-3.3-3.3-7.3-6.1-11.6-7.6-8.8-3.2-22.5-7.9-31.2-10.9-7.6-2.6-12.5-9.6-12.5-17.6 0-16.5-6.7-31.5-17.6-42.4s-25.9-17.6-42.4-17.6c-8 0-15 4.9-17.6 12.5-3 8.7-7.7 22.4-10.9 31.2-1.5 4.3-4.3 8.3-7.6 11.6l-31.1 31.1c-6.2 6.2-6.2 16.4 0 22.6l31.1 31.1z"/>
</svg>